<svg id="visual" viewBox="0 0 1920 1080" width="1920" height="1080" xmlns="http://www.w3.org/2000/svg" xmlns:xlink="http://www.w3.org/1999/xlink" version="1.1"><path d="M0 23L29.2 24.7C58.3 26.3 116.7 29.7 174.8 33.2C233 36.7 291 40.3 349.2 42.2C407.3 44 465.7 44 523.8 44C582 44 640 44 698.2 45.8C756.3 47.7 814.7 51.3 872.8 51.3C931 51.3 989 47.7 1047.2 47.7C1105.3 47.7 1163.7 51.3 1221.8 53.2C1280 55 1338 55 1396.2 53.2C1454.3 51.3 1512.7 47.7 1570.8 47.7C1629 47.7 1687 51.3 1745.2 47.8C1803.3 44.3 1861.7 33.7 1890.8 28.3L1920 23L1920 0L1890.8 0C1861.7 0 1803.3 0 1745.2 0C1687 0 1629 0 1570.8 0C1512.7 0 1454.3 0 1396.2 0C1338 0 1280 0 1221.8 0C1163.7 0 1105.3 0 1047.2 0C989 0 931 0 872.8 0C814.7 0 756.3 0 698.2 0C640 0 582 0 523.8 0C465.7 0 407.3 0 349.2 0C291 0 233 0 174.8 0C116.7 0 58.3 0 29.2 0L0 0Z" fill="#6198ff"></path><path d="M0 141L29.2 133.8C58.3 126.7 116.7 112.3 174.8 108.8C233 105.3 291 112.7 349.2 118.2C407.3 123.7 465.7 127.3 523.8 138.2C582 149 640 167 698.2 163.3C756.3 159.7 814.7 134.3 872.8 134.3C931 134.3 989 159.7 1047.2 170.5C1105.3 181.3 1163.7 177.7 1221.8 163.2C1280 148.7 1338 123.3 1396.2 116.2C1454.3 109 1512.7 120 1570.8 136.2C1629 152.3 1687 173.7 1745.2 171.8C1803.3 170 1861.7 145 1890.8 132.5L1920 120L1920 21L1890.8 26.3C1861.7 31.7 1803.3 42.3 1745.2 45.8C1687 49.3 1629 45.7 1570.8 45.7C1512.7 45.7 1454.3 49.3 1396.2 51.2C1338 53 1280 53 1221.8 51.2C1163.7 49.3 1105.3 45.7 1047.2 45.7C989 45.7 931 49.3 872.8 49.3C814.7 49.3 756.3 45.7 698.2 43.8C640 42 582 42 523.8 42C465.7 42 407.3 42 349.2 40.2C291 38.3 233 34.7 174.8 31.2C116.7 27.7 58.3 24.3 29.2 22.7L0 21Z" fill="#548fff"></path><path d="M0 185L29.2 181.3C58.3 177.7 116.7 170.3 174.8 166.7C233 163 291 163 349.2 164.8C407.3 166.7 465.7 170.3 523.8 184.7C582 199 640 224 698.2 222.2C756.3 220.3 814.7 191.7 872.8 188.2C931 184.7 989 206.3 1047.2 211.7C1105.3 217 1163.7 206 1221.8 195.2C1280 184.3 1338 173.7 1396.2 172C1454.3 170.3 1512.7 177.7 1570.8 190.3C1629 203 1687 221 1745.2 219.2C1803.3 217.3 1861.7 195.7 1890.8 184.8L1920 174L1920 118L1890.8 130.5C1861.7 143 1803.3 168 1745.2 169.8C1687 171.7 1629 150.3 1570.8 134.2C1512.7 118 1454.3 107 1396.2 114.2C1338 121.3 1280 146.7 1221.8 161.2C1163.7 175.7 1105.3 179.3 1047.2 168.5C989 157.7 931 132.3 872.8 132.3C814.7 132.3 756.3 157.7 698.2 161.3C640 165 582 147 523.8 136.2C465.7 125.3 407.3 121.7 349.2 116.2C291 110.7 233 103.3 174.8 106.8C116.7 110.3 58.3 124.7 29.2 131.8L0 139Z" fill="#4686ff"></path><path d="M0 271L29.2 267.3C58.3 263.7 116.7 256.3 174.8 258.2C233 260 291 271 349.2 287.3C407.3 303.7 465.7 325.3 523.8 348.7C582 372 640 397 698.2 380.7C756.3 364.3 814.7 306.7 872.8 283.3C931 260 989 271 1047.2 289C1105.3 307 1163.7 332 1221.8 341C1280 350 1338 343 1396.2 346.7C1454.3 350.3 1512.7 364.7 1570.8 370C1629 375.3 1687 371.7 1745.2 362.7C1803.3 353.7 1861.7 339.3 1890.8 332.2L1920 325L1920 172L1890.8 182.8C1861.7 193.7 1803.3 215.3 1745.2 217.2C1687 219 1629 201 1570.8 188.3C1512.7 175.7 1454.3 168.3 1396.2 170C1338 171.7 1280 182.3 1221.8 193.2C1163.7 204 1105.3 215 1047.2 209.7C989 204.3 931 182.7 872.8 186.2C814.7 189.7 756.3 218.3 698.2 220.2C640 222 582 197 523.8 182.7C465.7 168.3 407.3 164.7 349.2 162.8C291 161 233 161 174.8 164.7C116.7 168.3 58.3 175.7 29.2 179.3L0 183Z" fill="#387dff"></path><path d="M0 390L29.2 395.3C58.3 400.7 116.7 411.3 174.8 432.8C233 454.3 291 486.7 349.2 488.5C407.3 490.3 465.7 461.7 523.8 461.7C582 461.7 640 490.3 698.2 485C756.3 479.7 814.7 440.3 872.8 444C931 447.7 989 494.3 1047.2 506.8C1105.3 519.3 1163.7 497.7 1221.8 485C1280 472.3 1338 468.7 1396.2 470.5C1454.3 472.3 1512.7 479.7 1570.8 492.3C1629 505 1687 523 1745.2 524.8C1803.3 526.7 1861.7 512.3 1890.8 505.2L1920 498L1920 323L1890.8 330.2C1861.7 337.3 1803.3 351.7 1745.2 360.7C1687 369.7 1629 373.3 1570.8 368C1512.7 362.7 1454.3 348.3 1396.2 344.7C1338 341 1280 348 1221.8 339C1163.7 330 1105.3 305 1047.2 287C989 269 931 258 872.8 281.3C814.7 304.7 756.3 362.3 698.2 378.7C640 395 582 370 523.8 346.7C465.7 323.3 407.3 301.7 349.2 285.3C291 269 233 258 174.8 256.2C116.7 254.3 58.3 261.7 29.2 265.3L0 269Z" fill="#2874ff"></path><path d="M0 444L29.2 451.2C58.3 458.3 116.7 472.7 174.8 496C233 519.3 291 551.7 349.2 549.8C407.3 548 465.7 512 523.8 517.5C582 523 640 570 698.2 570C756.3 570 814.7 523 872.8 519.3C931 515.7 989 555.3 1047.2 560.8C1105.3 566.3 1163.7 537.7 1221.8 530.5C1280 523.3 1338 537.7 1396.2 541.2C1454.3 544.7 1512.7 537.3 1570.8 546.3C1629 555.3 1687 580.7 1745.2 587.8C1803.3 595 1861.7 584 1890.8 578.5L1920 573L1920 496L1890.8 503.2C1861.7 510.3 1803.3 524.7 1745.2 522.8C1687 521 1629 503 1570.8 490.3C1512.7 477.7 1454.3 470.3 1396.2 468.5C1338 466.7 1280 470.3 1221.8 483C1163.7 495.7 1105.3 517.3 1047.2 504.8C989 492.3 931 445.7 872.8 442C814.7 438.3 756.3 477.7 698.2 483C640 488.3 582 459.7 523.8 459.7C465.7 459.7 407.3 488.3 349.2 486.5C291 484.7 233 452.3 174.8 430.8C116.7 409.3 58.3 398.7 29.2 393.3L0 388Z" fill="#126bff"></path><path d="M0 789L29.2 783.7C58.3 778.3 116.7 767.7 174.8 769.5C233 771.3 291 785.7 349.2 782C407.3 778.3 465.7 756.7 523.8 765.7C582 774.7 640 814.3 698.2 823.3C756.3 832.3 814.7 810.7 872.8 792.7C931 774.7 989 760.3 1047.2 747.8C1105.3 735.3 1163.7 724.7 1221.8 730.2C1280 735.7 1338 757.3 1396.2 778.8C1454.3 800.3 1512.7 821.7 1570.8 825.2C1629 828.7 1687 814.3 1745.2 807.2C1803.3 800 1861.7 800 1890.8 800L1920 800L1920 571L1890.8 576.5C1861.7 582 1803.3 593 1745.2 585.8C1687 578.7 1629 553.3 1570.8 544.3C1512.7 535.3 1454.3 542.7 1396.2 539.2C1338 535.7 1280 521.3 1221.8 528.5C1163.7 535.7 1105.3 564.3 1047.2 558.8C989 553.3 931 513.7 872.8 517.3C814.7 521 756.3 568 698.2 568C640 568 582 521 523.8 515.5C465.7 510 407.3 546 349.2 547.8C291 549.7 233 517.3 174.8 494C116.7 470.7 58.3 456.3 29.2 449.2L0 442Z" fill="#0064f9"></path><path d="M0 822L29.2 827.3C58.3 832.7 116.7 843.3 174.8 852.3C233 861.3 291 868.7 349.2 854.3C407.3 840 465.7 804 523.8 809.3C582 814.7 640 861.3 698.2 877.5C756.3 893.7 814.7 879.3 872.8 859.5C931 839.7 989 814.3 1047.2 803.5C1105.3 792.7 1163.7 796.3 1221.8 809C1280 821.7 1338 843.3 1396.2 861.3C1454.3 879.3 1512.7 893.7 1570.8 890C1629 886.3 1687 864.7 1745.2 859.3C1803.3 854 1861.7 865 1890.8 870.5L1920 876L1920 798L1890.8 798C1861.7 798 1803.3 798 1745.2 805.2C1687 812.3 1629 826.7 1570.8 823.2C1512.7 819.7 1454.3 798.3 1396.2 776.8C1338 755.3 1280 733.7 1221.8 728.2C1163.7 722.7 1105.3 733.3 1047.2 745.8C989 758.3 931 772.7 872.8 790.7C814.7 808.7 756.3 830.3 698.2 821.3C640 812.3 582 772.7 523.8 763.7C465.7 754.7 407.3 776.3 349.2 780C291 783.7 233 769.3 174.8 767.5C116.7 765.7 58.3 776.3 29.2 781.7L0 787Z" fill="#005fec"></path><path d="M0 876L29.2 879.5C58.3 883 116.7 890 174.8 895.3C233 900.7 291 904.3 349.2 895.3C407.3 886.3 465.7 864.7 523.8 870.2C582 875.7 640 908.3 698.2 915.7C756.3 923 814.7 905 872.8 892.3C931 879.7 989 872.3 1047.2 866.8C1105.3 861.3 1163.7 857.7 1221.8 866.7C1280 875.7 1338 897.3 1396.2 913.5C1454.3 929.7 1512.7 940.3 1570.8 936.7C1629 933 1687 915 1745.2 907.8C1803.3 900.7 1861.7 904.3 1890.8 906.2L1920 908L1920 874L1890.8 868.5C1861.7 863 1803.3 852 1745.2 857.3C1687 862.7 1629 884.3 1570.8 888C1512.7 891.7 1454.3 877.3 1396.2 859.3C1338 841.3 1280 819.7 1221.8 807C1163.7 794.3 1105.3 790.7 1047.2 801.5C989 812.3 931 837.7 872.8 857.5C814.7 877.3 756.3 891.7 698.2 875.5C640 859.3 582 812.7 523.8 807.3C465.7 802 407.3 838 349.2 852.3C291 866.7 233 859.3 174.8 850.3C116.7 841.3 58.3 830.7 29.2 825.3L0 820Z" fill="#005ae0"></path><path d="M0 897L29.2 902.5C58.3 908 116.7 919 174.8 926.3C233 933.7 291 937.3 349.2 931.8C407.3 926.3 465.7 911.7 523.8 920.7C582 929.7 640 962.3 698.2 964.2C756.3 966 814.7 937 872.8 924.3C931 911.7 989 915.3 1047.2 917.2C1105.3 919 1163.7 919 1221.8 926.2C1280 933.3 1338 947.7 1396.2 956.7C1454.3 965.7 1512.7 969.3 1570.8 962.2C1629 955 1687 937 1745.2 931.7C1803.3 926.3 1861.7 933.7 1890.8 937.3L1920 941L1920 906L1890.8 904.2C1861.7 902.3 1803.3 898.7 1745.2 905.8C1687 913 1629 931 1570.8 934.7C1512.7 938.3 1454.3 927.7 1396.2 911.5C1338 895.3 1280 873.7 1221.8 864.7C1163.7 855.7 1105.3 859.3 1047.2 864.8C989 870.3 931 877.7 872.8 890.3C814.7 903 756.3 921 698.2 913.7C640 906.3 582 873.7 523.8 868.2C465.7 862.7 407.3 884.3 349.2 893.3C291 902.3 233 898.7 174.8 893.3C116.7 888 58.3 881 29.2 877.5L0 874Z" fill="#0055d3"></path><path d="M0 995L29.2 1004C58.3 1013 116.7 1031 174.8 1031C233 1031 291 1013 349.2 1005.7C407.3 998.3 465.7 1001.7 523.8 1012.3C582 1023 640 1041 698.2 1041C756.3 1041 814.7 1023 872.8 1014C931 1005 989 1005 1047.2 1010.5C1105.3 1016 1163.7 1027 1221.8 1027C1280 1027 1338 1016 1396.2 1014.2C1454.3 1012.3 1512.7 1019.7 1570.8 1023.3C1629 1027 1687 1027 1745.2 1030.7C1803.3 1034.3 1861.7 1041.7 1890.8 1045.3L1920 1049L1920 939L1890.8 935.3C1861.7 931.7 1803.3 924.3 1745.2 929.7C1687 935 1629 953 1570.8 960.2C1512.7 967.3 1454.3 963.7 1396.2 954.7C1338 945.7 1280 931.3 1221.8 924.2C1163.7 917 1105.3 917 1047.2 915.2C989 913.3 931 909.7 872.8 922.3C814.7 935 756.3 964 698.2 962.2C640 960.3 582 927.7 523.8 918.7C465.7 909.7 407.3 924.3 349.2 929.8C291 935.3 233 931.7 174.8 924.3C116.7 917 58.3 906 29.2 900.5L0 895Z" fill="#0051c7"></path><path d="M0 1081L29.2 1081C58.3 1081 116.7 1081 174.8 1081C233 1081 291 1081 349.2 1081C407.3 1081 465.7 1081 523.8 1081C582 1081 640 1081 698.2 1081C756.3 1081 814.7 1081 872.8 1081C931 1081 989 1081 1047.2 1081C1105.3 1081 1163.7 1081 1221.8 1081C1280 1081 1338 1081 1396.2 1081C1454.3 1081 1512.7 1081 1570.8 1081C1629 1081 1687 1081 1745.2 1081C1803.3 1081 1861.7 1081 1890.8 1081L1920 1081L1920 1047L1890.8 1043.3C1861.7 1039.7 1803.3 1032.3 1745.2 1028.7C1687 1025 1629 1025 1570.8 1021.3C1512.7 1017.7 1454.3 1010.3 1396.2 1012.2C1338 1014 1280 1025 1221.8 1025C1163.7 1025 1105.3 1014 1047.2 1008.5C989 1003 931 1003 872.8 1012C814.7 1021 756.3 1039 698.2 1039C640 1039 582 1021 523.8 1010.3C465.7 999.7 407.3 996.3 349.2 1003.7C291 1011 233 1029 174.8 1029C116.7 1029 58.3 1011 29.2 1002L0 993Z" fill="#004cbb"></path></svg>